<svg width="100" height="100" viewBox="0 0 100 100" xmlns="http://www.w3.org/2000/svg">
    <path d="M 28 20 A 12 12 0 0 1 40 8 H 76 A 12 12 0 0 1 88 20 V 56 A 12 12 0 0 1 76 68 H 68 V 76 A 12 12 0 0 1 56 88 H 20 A 12 12 0 0 1 8 76 V 40 A 12 12 0 0 1 20 28 H 28 Z M 36 28 H 56 A 12 12 0 0 1 68 40 V 60 H 76 A 4 4 0 0 0 80 56 V 20 A 4 4 0 0 0 76 16 H 40 A 4 4 0 0 0 36 20 Z M 20 36 A 4 4 0 0 0 16 40 V 76 A 4 4 0 0 0 20 80 H 56 A 4 4 0 0 0 60 76 V 40 A 4 4 0 0 0 56 36 Z"
        fill="#f0f0f0"/>
</svg>