<svg width="100" height="100" viewBox="0 0 100 100" xmlns="http://www.w3.org/2000/svg">
    <path d="M25.0,60.0 L25.0,61.0 A5.0,5.0 0 0 1 20.0,66.0 L6.0,66.0 A5.0,5.0 0 0 1 1.0,61.0 L1.0,60.0 A49.0,49.0 0 0 1 41.8,11.7 L45.8,35.4 A25.0,25.0 0 0 0 25.0,60.0 Z"
        stroke="none"
        fill="#dc5646"/>
    <path d="M41.2,11.8 A49.0,49.0 0 0 1 87.7,28.7 L69.3,44.1 A25.0,25.0 0 0 0 45.5,35.4 Z"
        stroke="none"
        fill="#f5c047"/>
    <path d="M87.3,28.3 A49.0,49.0 0 0 1 99.0,60.0 L99.0,61.0 A5.0,5.0 0 0 1 94.0,66.0 L80.0,66.0 A5.0,5.0 0 0 1 75.0,61.0 L75.0,60.0 A25.0,25.0 0 0 0 69.0,43.8 Z"
        stroke="none"
        fill="#76c844"/>
    <path d="M43.1,56.0 A8.0,8.0 0 0 0 56.9,64.0 L72.0,21.9 Z"
        stroke="none"
        fill="#292745"/>
</svg>