<svg width="100" height="100" viewBox="0 0 512 512" xmlns="http://www.w3.org/2000/svg">
    <path d="M 72 464 H 120 V 512 H 72 A 64 64 0 0 1 8 448 V 64 A 64 64 0 0 1 72 0 H 238 A 64 64 0 0 1 283 19 L 373 109 A 64 64 0 0 1 392 154 V 304 H 344 V 160 H 264 A 32 32 0 0 1 232 128 V 48 H 72 A 16 16 0 0 0 56 64 V 448 A 16 16 0 0 0 72 464 Z M 216 352 A 56 56 0 0 1 216 464 H 200 V 496 A 1 1 0 0 1 168 496 V 368 A 16 16 0 0 1 184 352 Z M 216 432 A 24 24 0 0 0 216 384 H 200 V 432 Z M 344 352 A 48 48 0 0 1 392 400 V 464 A 48 48 0 0 1 344 512 H 312 A 16 16 0 0 1 296 496 V 368 A 16 16 0 0 1 312 352 Z M 344 480 A 16 16 0 0 0 360 464 V 400 A 16 16 0 0 0 344 384 H 328 V 480 Z M 424 368 A 16 16 0 0 1 440 352 H 488 A 16 16 0 0 1 488 384 H 456 V 416 H 488 A 16 16 0 0 1 488 448 H 456 V 496 A 16 16 0 0 1 424 496 Z"
        fill="#f0f0f0"/>
</svg>