<svg width="500" height="100" viewBox="0 0 500 100" xmlns="http://www.w3.org/2000/svg">
    <rect width="500" height="100" x="0" y="0" fill="#ffffff"/>
    <path d="M 50 8 A 350 350 0 0 0 37 34 A 350 350 0 0 0 7 39 A 350 350 0 0 0 29 59 A 350 350 0 0 0 24 89 A 350 350 0 0 0 50 75 A 350 350 0 0 0 76 89 A 350 350 0 0 0 71 59 A 350 350 0 0 0 93 39 A 350 350 0 0 0 63 34 A 350 350 0 0 0 50 8 Z"
        stroke="#b28037"
        stroke-width="4.5"
        fill="#f7ce08"/>
    <path d="M 150 8 A 350 350 0 0 0 137 34 A 350 350 0 0 0 107 39 A 350 350 0 0 0 129 59 A 350 350 0 0 0 124 89 A 350 350 0 0 0 150 75 A 350 350 0 0 0 176 89 A 350 350 0 0 0 171 59 A 350 350 0 0 0 193 39 A 350 350 0 0 0 163 34 A 350 350 0 0 0 150 8 Z"
        stroke="#b28037"
        stroke-width="4.5"
        fill="#f7ce08"/>
    <path d="M 250 8 A 350 350 0 0 0 237 34 A 350 350 0 0 0 207 39 A 350 350 0 0 0 229 59 A 350 350 0 0 0 224 89 A 350 350 0 0 0 250 75 A 350 350 0 0 0 276 89 A 350 350 0 0 0 271 59 A 350 350 0 0 0 293 39 A 350 350 0 0 0 263 34 A 350 350 0 0 0 250 8 Z"
        stroke="#b28037"
        stroke-width="4.5"
        fill="#f7ce08"/>
    <path d="M 350 8 A 350 350 0 0 0 337 34 A 350 350 0 0 0 307 39 A 350 350 0 0 0 329 59 A 350 350 0 0 0 324 89 A 350 350 0 0 0 350 75 A 350 350 0 0 0 376 89 A 350 350 0 0 0 371 59 A 350 350 0 0 0 393 39 A 350 350 0 0 0 363 34 A 350 350 0 0 0 350 8 Z"
        stroke="#b28037"
        stroke-width="4.5"
        fill="#f7ce08"/>
    <path d="M 450 8 A 350 350 0 0 0 437 34 A 350 350 0 0 0 407 39 A 350 350 0 0 0 429 59 A 350 350 0 0 0 424 89 A 350 350 0 0 0 450 75 A 350 350 0 0 0 476 89 A 350 350 0 0 0 471 59 A 350 350 0 0 0 493 39 A 350 350 0 0 0 463 34 A 350 350 0 0 0 450 8 Z"
        stroke="#b28037"
        stroke-width="4.5"
        fill="#ffffff"/>
</svg>
