<svg width="500" height="500" viewBox="0 0 1000 1000" xmlns="http://www.w3.org/2000/svg">
    <path d="M 297 100 C 297 59 578 66 630 63 819 56 886 130 862 208 919 239 912 322 896 341 938 380 936 452 899 478 976 665 676 618 606 596 562 617 616 737 628 785 669 955 526 967 526 943 517 952 508 886 510 870 467 733 380 598 346 566 342 563 297 517 297 468 282 508 82 508 67 468 L 67 100 C 82 60 282 60 297 100 L 297 468"
        stroke="#000000"
        stroke-width="40"
        stroke-linejoin="round"
        fill="#ffffff"/>
</svg>