<svg width="500" height="500" viewBox="0 0 1000 1000" xmlns="http://www.w3.org/2000/svg">
    <path d="M 297 900 C 297 941 578 934 630 937 819 944 886 870 862 792 919 761 912 678 896 659 938 620 936 548 899 522 976 335 676 382 606 404 562 383 616 263 628 215 669 45 526 33 526 57 517 48 508 114 510 130 467 267 380 402 346 434 342 437 297 483 297 532 282 492 82 492 67 532 L 67 900 C 82 940 282 940 297 900 L 297 532"
        stroke="#000000"
        stroke-width="40"
        stroke-linejoin="round"
        fill="#ffffff"/>
</svg>